<?xml version="1.0" ?><svg xmlns="http://www.w3.org/2000/svg" viewBox="0 0 512 512"><defs><style>.cls-1{fill:#dedadb;}.cls-2{fill:#4fa4d1;}</style></defs><title/><g id="flip_flops" data-name="flip flops"><path class="cls-1" d="M115.451,512h0A105,105,0,0,1,10.485,409.71c-.045-1.805-.128-3.61-.309-5.407C.844,312.1-2.157,219.877,7.16,127.637c.192-1.9.28-3.806.323-5.714C9.006,54.328,67.278,0,135.238,0h12.5q2.183,0,4.421.127c54.487,3.077,89.616,50.581,77.915,103.886-22.694,103.388-36.689,202.1-22.988,294.242a87.687,87.687,0,0,1-1.008,31.057C196.06,476.584,165.785,512,115.451,512Z"/><path class="cls-2" d="M33.5,360a11,11,0,0,1-10.257-7.023C-38.276,194.5,33.426,148.4,109.338,99.589l2.862-1.84a11,11,0,0,1,10.894-.576c3.125,1.572,76.761,39.351,96.058,113.248,11.749,44.991.685,93.013-32.884,142.734a11,11,0,1,1-18.234-12.31c29.876-44.251,39.913-86.262,29.832-124.866-14.008-53.642-62.982-86.5-79.316-96.158-35.206,22.649-68.145,44.35-84.642,76.133-18.744,36.11-15.616,83.478,9.842,149.066A11.008,11.008,0,0,1,33.5,360Z"/><path class="cls-2" d="M117.151,118a11,11,0,0,1-11-11V80a11,11,0,0,1,22,0v27A11,11,0,0,1,117.151,118Z"/><path class="cls-1" d="M396.549,512h0A105,105,0,0,0,501.515,409.71c.045-1.805.128-3.61.309-5.407,9.332-92.2,12.333-184.426,3.016-276.666-.192-1.9-.28-3.806-.323-5.714C502.994,54.328,444.722,0,376.762,0h-12.5q-2.182,0-4.421.127C305.354,3.2,270.225,50.708,281.926,104.013c22.694,103.388,36.689,202.1,22.988,294.242a87.687,87.687,0,0,0,1.008,31.057C315.94,476.584,346.215,512,396.549,512Z"/><path class="cls-2" d="M478.5,360a11,11,0,0,0,10.257-7.023C550.276,194.5,478.574,148.4,402.662,99.589l-2.862-1.84a11,11,0,0,0-10.894-.576c-3.125,1.572-76.761,39.351-96.058,113.248-11.749,44.991-.685,93.013,32.884,142.734a11,11,0,1,0,18.234-12.31c-29.876-44.251-39.913-86.262-29.832-124.866,14.008-53.642,62.982-86.5,79.316-96.158,35.206,22.649,68.145,44.35,84.642,76.133,18.744,36.11,15.616,83.478-9.842,149.066A11.008,11.008,0,0,0,478.5,360Z"/><path class="cls-2" d="M394.849,118a11,11,0,0,0,11-11V80a11,11,0,0,0-22,0v27A11,11,0,0,0,394.849,118Z"/></g></svg>